<mxfile host="app.diagrams.net" modified="2024-07-18T00:34:48.035Z" agent="Mozilla/5.0 (Windows NT 10.0; Win64; x64) AppleWebKit/537.36 (KHTML, like Gecko) Chrome/126.0.0.0 Safari/537.36" version="24.7.1" etag="ASwdrygGR4I24OFWADvR" type="github">
  <diagram name="PÃ¡gina-1" id="9pvNDDNp4Hp1uBwtXsz3">
    <mxGraphModel>
      <root>
        <mxCell id="0" />
        <mxCell id="1" parent="0" />
      </root>
    </mxGraphModel>
  </diagram>
</mxfile>
